<?xml version="1.0" encoding="utf-8"?>
<!-- Generator: Adobe Illustrator 21.0.0, SVG Export Plug-In . SVG Version: 6.00 Build 0)  -->
<svg version="1.1" xmlns="http://www.w3.org/2000/svg" xmlns:xlink="http://www.w3.org/1999/xlink" x="0px" y="0px"
	 viewBox="0 0 495 131.8" style="enable-background:new 0 0 495 131.8;" xml:space="preserve">
<style type="text/css">
	
</style>
<g id="EDITABLE" class="st0">
	<g id="OG">
	</g>
	<g id="ED">
	</g>
	<g id="KAVAK_1">
	</g>
	<g id="SPACING">
	</g>
</g>
<g id="Layer_18" class="st0">
</g>
<g id="Web" class="st0">
</g>
<g id="Layer_22">
</g>
<g id="KAVAK">
</g>
<g id="DO_x27_S_DON_x27_TS">
</g>
<g id="TIPOGRAFIA">
	<g id="Layer_15">
	</g>
</g>
<g id="COLORES">
</g>
<g id="SPACING_1_">
</g>
<g id="LOGO">
	<g id="ED_OG" class="st0">
	</g>
	<g id="ED_1_">
	</g>
	<g id="SPACING_copy">
	</g>
	<g id="BUENO">
		<g>
			<path fill="#484870" class="st12" d="M441.3,67.6l53.2-60.8c1.1-1.3,0.2-3.3-1.5-3.3l-26.3,0c-0.6,0-1.1,0.3-1.5,0.7l-43.3,49.5
				c-1.2,1.4-3.5,0.5-3.5-1.3v-47c0-1.1-0.9-2-2-2h-21.7c-1.1,0-2,0.9-2,2v124.4c0,1.1,0.9,2,2,2h21.7c1.1,0,2-0.9,2-2V82.9
				c0-1.9,2.3-2.7,3.5-1.3l43.3,49.5c0.4,0.4,0.9,0.7,1.5,0.7H493c1.7,0,2.7-2,1.5-3.3L441.3,67.6L441.3,67.6z"/>
			<path fill="#484870" class="st12" d="M283.9,3.3h-22.7c-0.8,0-1.5,0.5-1.8,1.2L236.7,56c-0.7,1.6-3,1.6-3.7,0L209.8,4.5c-0.3-0.7-1-1.2-1.8-1.2
				h-22.8c-1.5,0-2.4,1.5-1.8,2.8l49.3,111.7c0.7,1.6,3,1.6,3.7,0L285.7,6.1C286.3,4.8,285.4,3.3,283.9,3.3z"/>
			<path fill="#484870" class="st12" d="M96.1,117.1c-0.6,1.3-2.4,1.6-3.4,0.5L49,67.6h0l53.4-60.8c1.1-1.3,0.2-3.3-1.5-3.3l-26.3,0
				c-0.6,0-1.1,0.3-1.5,0.7L29.5,53.6C28.3,55,26,54.2,26,52.3v-47c0-1.1-0.9-2-2-2H2.3c-1.1,0-2,0.9-2,2v124.4c0,1.1,0.9,2,2,2H24
				c1.1,0,2-0.9,2-2V82.9c0-1.9,2.3-2.7,3.5-1.3l43.3,49.5c0.4,0.4,0.9,0.7,1.5,0.7h41c0.8,0,1.5-0.5,1.8-1.2l5.3-12h33.8
				c1.5,0,2.4-1.5,1.8-2.8l-10.3-23.2c-0.3-0.7-1-1.2-1.8-1.2h-11.4l12.8-28.9c0.7-1.6,3-1.6,3.7,0l30.1,68.1c0.3,0.7,1,1.2,1.8,1.2
				h22.7c1.5,0,2.4-1.5,1.8-2.8L151.2,1.2c-0.7-1.6-3-1.6-3.7,0L96.1,117.1z"/>
			<path fill="#484870" class="st12" d="M318,1.1l-56.6,127.9c-0.6,1.3,0.4,2.8,1.8,2.8h22.7c0.8,0,1.5-0.5,1.8-1.2l30.1-68.1c0.7-1.6,3-1.6,3.7,0
				l12.8,28.9h-11.4c-0.8,0-1.5,0.5-1.8,1.2l-10.3,23.2c-0.6,1.3,0.4,2.8,1.8,2.8h33.8l5.3,12c0.3,0.7,1,1.2,1.8,1.2h22.8
				c1.5,0,2.4-1.5,1.8-2.8L321.7,1.1C321-0.5,318.8-0.5,318,1.1z"/>
		</g>
	</g>
</g>
<g id="ICONO">
</g>
<g id="ESCALABLE">
</g>
<g id="PORTADA">
</g>
</svg>
